<mxfile host="app.diagrams.net" modified="2024-03-29T11:46:06.034Z" agent="Mozilla/5.0 (Windows NT 10.0; Win64; x64) AppleWebKit/537.36 (KHTML, like Gecko) Chrome/123.0.0.0 Safari/537.36" etag="qEtp20eLEw5B6Y_sv9_d" version="24.1.0" type="github">
  <diagram name="Page-1" id="GYPsvn_whEvd8AYPNaHm">
    <mxGraphModel dx="792" dy="1143" grid="1" gridSize="10" guides="1" tooltips="1" connect="1" arrows="1" fold="1" page="1" pageScale="1" pageWidth="827" pageHeight="1169" math="0" shadow="0">
      <root>
        <mxCell id="0" />
        <mxCell id="1" parent="0" />
        <mxCell id="7973tEPBYE7JcwuhFdSY-21" value="" style="rounded=0;orthogonalLoop=1;jettySize=auto;html=1;dashed=1;dashPattern=1 4;endArrow=none;endFill=0;" edge="1" parent="1" source="7973tEPBYE7JcwuhFdSY-1" target="7973tEPBYE7JcwuhFdSY-2">
          <mxGeometry relative="1" as="geometry" />
        </mxCell>
        <mxCell id="7973tEPBYE7JcwuhFdSY-1" value="Splunk Server&lt;div&gt;IP:192.168.10.10&lt;/div&gt;" style="sketch=0;outlineConnect=0;fontColor=#232F3E;gradientColor=none;fillColor=#232F3D;strokeColor=none;dashed=0;verticalLabelPosition=bottom;verticalAlign=top;align=center;html=1;fontSize=12;fontStyle=0;aspect=fixed;pointerEvents=1;shape=mxgraph.aws4.traditional_server;" vertex="1" parent="1">
          <mxGeometry x="90" y="190" width="45" height="78" as="geometry" />
        </mxCell>
        <mxCell id="7973tEPBYE7JcwuhFdSY-2" value="DC01&lt;div&gt;192.168.10.7&lt;/div&gt;&lt;div&gt;Splunk Universal Forwarder&amp;nbsp;&lt;/div&gt;&lt;div&gt;Sysmon&lt;/div&gt;" style="sketch=0;outlineConnect=0;fontColor=#232F3E;gradientColor=none;fillColor=#232F3D;strokeColor=none;dashed=0;verticalLabelPosition=bottom;verticalAlign=top;align=center;html=1;fontSize=12;fontStyle=0;aspect=fixed;pointerEvents=1;shape=mxgraph.aws4.traditional_server;" vertex="1" parent="1">
          <mxGeometry x="90" y="340" width="45" height="78" as="geometry" />
        </mxCell>
        <mxCell id="7973tEPBYE7JcwuhFdSY-3" value="Workstation-01&lt;div&gt;Win10&lt;/div&gt;&lt;div&gt;IP: DHCP&lt;/div&gt;&lt;div&gt;&lt;div style=&quot;color: rgb(35, 47, 62);&quot;&gt;Splunk Universal Forwarder&amp;nbsp;&lt;/div&gt;&lt;div style=&quot;color: rgb(35, 47, 62);&quot;&gt;Sysmon&lt;/div&gt;&lt;/div&gt;&lt;div style=&quot;color: rgb(35, 47, 62);&quot;&gt;Atomic Red Team&lt;/div&gt;&lt;div&gt;&lt;br&gt;&lt;/div&gt;" style="verticalLabelPosition=bottom;html=1;verticalAlign=top;align=center;strokeColor=none;fillColor=#00BEF2;shape=mxgraph.azure.computer;pointerEvents=1;" vertex="1" parent="1">
          <mxGeometry x="354" y="640" width="50" height="45" as="geometry" />
        </mxCell>
        <mxCell id="7973tEPBYE7JcwuhFdSY-4" value="KaliLinux&lt;div&gt;IP:192.168.10.250&lt;/div&gt;" style="verticalLabelPosition=bottom;html=1;verticalAlign=top;align=center;strokeColor=#b85450;fillColor=#f8cecc;shape=mxgraph.azure.computer;pointerEvents=1;" vertex="1" parent="1">
          <mxGeometry x="640" y="432.5" width="50" height="45" as="geometry" />
        </mxCell>
        <mxCell id="7973tEPBYE7JcwuhFdSY-5" value="" style="sketch=0;points=[[0.015,0.015,0],[0.985,0.015,0],[0.985,0.985,0],[0.015,0.985,0],[0.25,0,0],[0.5,0,0],[0.75,0,0],[1,0.25,0],[1,0.5,0],[1,0.75,0],[0.75,1,0],[0.5,1,0],[0.25,1,0],[0,0.75,0],[0,0.5,0],[0,0.25,0]];verticalLabelPosition=bottom;html=1;verticalAlign=top;aspect=fixed;align=center;pointerEvents=1;shape=mxgraph.cisco19.rect;prIcon=l2_switch;fillColor=#FAFAFA;strokeColor=#005073;" vertex="1" parent="1">
          <mxGeometry x="354" y="430" width="50" height="50" as="geometry" />
        </mxCell>
        <mxCell id="7973tEPBYE7JcwuhFdSY-16" style="edgeStyle=orthogonalEdgeStyle;rounded=0;orthogonalLoop=1;jettySize=auto;html=1;" edge="1" parent="1" source="7973tEPBYE7JcwuhFdSY-6" target="7973tEPBYE7JcwuhFdSY-7">
          <mxGeometry relative="1" as="geometry">
            <Array as="points">
              <mxPoint x="379" y="165" />
              <mxPoint x="380" y="165" />
            </Array>
          </mxGeometry>
        </mxCell>
        <mxCell id="7973tEPBYE7JcwuhFdSY-6" value="" style="sketch=0;points=[[0.5,0,0],[1,0.5,0],[0.5,1,0],[0,0.5,0],[0.145,0.145,0],[0.8555,0.145,0],[0.855,0.8555,0],[0.145,0.855,0]];verticalLabelPosition=bottom;html=1;verticalAlign=top;aspect=fixed;align=center;pointerEvents=1;shape=mxgraph.cisco19.rect;prIcon=router;fillColor=#FAFAFA;strokeColor=#005073;" vertex="1" parent="1">
          <mxGeometry x="354" y="250" width="50" height="50" as="geometry" />
        </mxCell>
        <mxCell id="7973tEPBYE7JcwuhFdSY-7" value="Internet" style="ellipse;shape=cloud;whiteSpace=wrap;html=1;" vertex="1" parent="1">
          <mxGeometry x="330" y="30" width="120" height="80" as="geometry" />
        </mxCell>
        <mxCell id="7973tEPBYE7JcwuhFdSY-10" style="edgeStyle=orthogonalEdgeStyle;rounded=0;orthogonalLoop=1;jettySize=auto;html=1;entryX=0.5;entryY=1;entryDx=0;entryDy=0;entryPerimeter=0;" edge="1" parent="1" source="7973tEPBYE7JcwuhFdSY-3" target="7973tEPBYE7JcwuhFdSY-5">
          <mxGeometry relative="1" as="geometry" />
        </mxCell>
        <mxCell id="7973tEPBYE7JcwuhFdSY-11" style="edgeStyle=orthogonalEdgeStyle;rounded=0;orthogonalLoop=1;jettySize=auto;html=1;entryX=1;entryY=0.5;entryDx=0;entryDy=0;entryPerimeter=0;" edge="1" parent="1" source="7973tEPBYE7JcwuhFdSY-4" target="7973tEPBYE7JcwuhFdSY-5">
          <mxGeometry relative="1" as="geometry" />
        </mxCell>
        <mxCell id="7973tEPBYE7JcwuhFdSY-12" style="edgeStyle=orthogonalEdgeStyle;rounded=0;orthogonalLoop=1;jettySize=auto;html=1;entryX=0.44;entryY=0.78;entryDx=0;entryDy=0;entryPerimeter=0;" edge="1" parent="1" source="7973tEPBYE7JcwuhFdSY-5" target="7973tEPBYE7JcwuhFdSY-6">
          <mxGeometry relative="1" as="geometry" />
        </mxCell>
        <mxCell id="7973tEPBYE7JcwuhFdSY-14" style="edgeStyle=orthogonalEdgeStyle;rounded=0;orthogonalLoop=1;jettySize=auto;html=1;entryX=0;entryY=0.5;entryDx=0;entryDy=0;entryPerimeter=0;" edge="1" parent="1" source="7973tEPBYE7JcwuhFdSY-1" target="7973tEPBYE7JcwuhFdSY-5">
          <mxGeometry relative="1" as="geometry" />
        </mxCell>
        <mxCell id="7973tEPBYE7JcwuhFdSY-15" style="edgeStyle=orthogonalEdgeStyle;rounded=0;orthogonalLoop=1;jettySize=auto;html=1;entryX=0;entryY=0.5;entryDx=0;entryDy=0;entryPerimeter=0;" edge="1" parent="1" source="7973tEPBYE7JcwuhFdSY-2" target="7973tEPBYE7JcwuhFdSY-5">
          <mxGeometry relative="1" as="geometry" />
        </mxCell>
        <mxCell id="7973tEPBYE7JcwuhFdSY-18" value="Domain: Fuzy&lt;div&gt;Network: 192.168.10.0/24&lt;/div&gt;&lt;div&gt;Splunk Server 192.168.10.10&lt;/div&gt;&lt;div&gt;AD: 192.168.10.7&lt;/div&gt;&lt;div&gt;Attacker: 192.168.10.250&lt;/div&gt;" style="text;html=1;align=center;verticalAlign=middle;resizable=0;points=[];autosize=1;strokeColor=none;fillColor=none;" vertex="1" parent="1">
          <mxGeometry x="50" y="8" width="180" height="90" as="geometry" />
        </mxCell>
        <mxCell id="7973tEPBYE7JcwuhFdSY-20" style="rounded=0;orthogonalLoop=1;jettySize=auto;html=1;entryX=0;entryY=0.5;entryDx=0;entryDy=0;entryPerimeter=0;dashed=1;dashPattern=1 4;endArrow=none;endFill=0;" edge="1" parent="1" source="7973tEPBYE7JcwuhFdSY-1" target="7973tEPBYE7JcwuhFdSY-3">
          <mxGeometry relative="1" as="geometry" />
        </mxCell>
      </root>
    </mxGraphModel>
  </diagram>
</mxfile>
